<?xml version="1.0" encoding="UTF-8" standalone="no"?>
<svg
   xmlns:dc="http://purl.org/dc/elements/1.1/"
   xmlns:cc="http://creativecommons.org/ns#"
   xmlns:rdf="http://www.w3.org/1999/02/22-rdf-syntax-ns#"
   xmlns:svg="http://www.w3.org/2000/svg"
   xmlns="http://www.w3.org/2000/svg"
   xmlns:sodipodi="http://sodipodi.sourceforge.net/DTD/sodipodi-0.dtd"
   xmlns:inkscape="http://www.inkscape.org/namespaces/inkscape"
   id="Capa_1"
   enable-background="new 0 0 512 512"
   height="512"
   viewBox="0 0 512 512"
   width="512"
   version="1.1"
   sodipodi:docname="face-mask.svg"
   inkscape:version="0.92.4 (5da689c313, 2019-01-14)">
  <metadata
     id="metadata895">
    <rdf:RDF>
      <cc:Work
         rdf:about="">
        <dc:format>image/svg+xml</dc:format>
        <dc:type
           rdf:resource="http://purl.org/dc/dcmitype/StillImage" />
        <dc:title></dc:title>
      </cc:Work>
    </rdf:RDF>
  </metadata>
  <defs
     id="defs893" />
  <sodipodi:namedview
     pagecolor="#ffffff"
     bordercolor="#666666"
     borderopacity="1"
     objecttolerance="10"
     gridtolerance="10"
     guidetolerance="10"
     inkscape:pageopacity="0"
     inkscape:pageshadow="2"
     inkscape:window-width="1280"
     inkscape:window-height="657"
     id="namedview891"
     showgrid="false"
     inkscape:zoom="0.65186406"
     inkscape:cx="69.555451"
     inkscape:cy="323.92069"
     inkscape:window-x="-8"
     inkscape:window-y="1072"
     inkscape:window-maximized="1"
     inkscape:current-layer="Capa_1" />
  <g
     id="g888">
    <path
       d="m462 126c-22.69 0-41.886 15.198-47.975 35.945-27.707-10.873-98.095-35.945-158.025-35.945s-130.318 25.072-158.025 35.945c-6.089-20.747-25.285-35.945-47.975-35.945-27.57 0-50 22.43-50 50v61.92c0 49.649 31.982 93.485 86.693 107.543 9.186 3.923 96.885 40.537 169.307 40.537 12.028 0 25.266-1.033 39.344-3.071 5.466-.791 9.256-5.863 8.464-11.329-.791-5.466-5.864-9.258-11.329-8.464-13.133 1.9-25.406 2.864-36.479 2.864-60.146 0-134.563-28.069-156-36.691v-41.063c27.639 5.417 97.067 17.754 156 17.754 58.934 0 128.361-12.337 156-17.754v41.071c-6.78 2.735-18.852 7.419-34.006 12.508-5.236 1.758-8.056 7.427-6.297 12.662 1.758 5.236 7.43 8.059 12.662 6.297 22.123-7.428 37.58-13.887 40.944-15.319 54.613-14.032 86.697-57.806 86.697-107.545v-61.92c0-27.57-22.43-50-50-50zm-50 56.691v41.063c-27.639-5.417-97.066-17.754-156-17.754-58.933 0-128.361 12.337-156 17.754v-41.063c21.437-8.622 95.854-36.691 156-36.691s134.563 28.069 156 36.691zm-392 55.229v-61.92c0-16.542 13.458-30 30-30s30 13.458 30 30v146.407c-36.846-13.963-60-45.964-60-84.487zm236 48.08c-59.428 0-132.254-13.438-156-18.159v-23.683c23.738-4.721 96.531-18.158 156-18.158 59.428 0 132.254 13.438 156 18.159v23.683c-23.738 4.721-96.531 18.158-156 18.158zm236-48.08c0 38.523-23.154 70.524-60 84.488 0-96.071 0-44.674 0-146.407 0-16.542 13.458-30 30-30s30 13.458 30 30z"
       id="path884" />
    <circle
       cx="338"
       cy="364"
       r="10"
       id="circle886" />
  </g>
  <path
     style="opacity:1;fill:#003073;fill-opacity:1;stroke:none;stroke-width:81.99652863;stroke-linecap:square;stroke-linejoin:round;stroke-miterlimit:4;stroke-dasharray:none;stroke-opacity:1"
     d="m 461.24067,126.75508 c -21.56625,-0.12794 -38.47285,16.80731 -48.03812,34.22882 -58.57009,-18.52749 -119.03197,-39.23366 -181.47458,-32.81356 -46.19826,3.29044 -90.12244,20.34138 -133.902547,32.9322 -9.278692,-21.23402 -32.00609,-38.88674 -56.266949,-33.59746 -18.332677,2.91101 -34.0012631,18.75784 -39.1228809,36.19068 -2.54664395,33.37442 -4.0491219,67.55656 1.5550848,100.67373 9.8380261,37.33724 39.9224101,67.73567 76.7499991,79.0127 49.398343,18.14318 100.134143,35.0983 152.636733,40.95506 21.74384,0.027 44.53912,2.28389 65.60056,-3.7686 8.18268,-4.61347 3.07871,-18.83466 -6.61441,-16.39407 -38.53075,4.37066 -77.60527,0.89031 -114.94068,-9.50001 -26.53783,-6.78888 -52.36724,-15.93664 -78.427964,-24.37287 1.356264,-13.68002 -2.53089,-29.27867 2.203394,-42.08899 72.65176,13.71249 147.14215,21.34054 220.97034,12.90232 29.82436,-2.29664 60.37378,-9.16941 89.26694,-12.36418 1.91134,13.64017 0.8328,27.59004 1.13559,41.36864 -13.02042,6.61162 -31.35223,7.14618 -40.73305,19.4322 -1.88674,10.45575 12.13373,11.81581 18.91949,7.90679 35.83206,-12.50067 76.22556,-23.04387 99.65255,-55.52543 26.00514,-31.935 19.65467,-76.06218 20.5483,-114.32963 0.4784,-18.33505 -2.05039,-39.28785 -18.98474,-50.10257 -8.58592,-7.00492 -19.61613,-11.047 -30.73306,-10.74577 z M 50.342374,145.74237 c 16.103995,-0.3052 30.880694,13.62394 29.122881,30.36017 1.563687,48.02077 2.359316,96.30196 -0.491526,144.25848 -2.375147,4.11443 -9.289529,-2.92642 -12.601696,-3.96611 -30.462969,-17.13585 -49.054316,-51.42679 -47.169464,-86.26625 0.734457,-23.37323 -2.863856,-48.08856 5.118618,-70.46256 5.169679,-8.56969 16.283053,-13.31248 26.021187,-13.92373 z m 412.233056,0 c 15.55004,0.19393 30.16252,13.05896 29.26693,29.27966 1.08184,28.95794 2.84614,58.84238 -2.87711,87.32628 -7.89704,26.87653 -29.38171,51.44695 -56.2161,59.25 -3.04918,-47.75779 -1.91117,-95.96258 -0.85593,-143.8517 -0.72544,-16.2269 11.42189,-30.95535 27.97034,-31.84746 0.90032,-0.10085 1.80608,-0.1491 2.71187,-0.15678 z m -206.79238,0.76695 c 54.26573,-0.1845 106.48157,16.86087 156.78813,35.62288 -1.2491,13.62166 2.26829,28.66007 -1.57626,41.67797 -76.15968,-14.15452 -154.53167,-22.55828 -231.82797,-11.87026 -26.85044,3.2865 -53.61664,7.39476 -80.172034,12.54399 0,-14.11723 0,-28.23446 0,-42.3517 C 149.32642,163.34574 201.4629,146.27407 255.78305,146.50932 Z M 256.54576,225.7 c 52.55834,0.0647 104.44789,9.40471 156.19067,17.61865 -0.76298,13.45 2.98266,30.89354 -16.20139,28.00564 -73.79935,12.91357 -149.71735,20.8677 -224.18722,8.47319 -23.85414,-3.86138 -48.78894,-5.1036 -71.76816,-12.24155 -3.255654,-7.31856 0.0642,-16.02723 -0.52119,-23.76271 51.54215,-9.84371 103.87842,-17.93225 156.48729,-18.09322 z"
     id="path1440"
     inkscape:connector-curvature="0" />
  <path
     style="opacity:1;fill:#003073;fill-opacity:1;stroke:none;stroke-width:81.99652863;stroke-linecap:square;stroke-linejoin:round;stroke-miterlimit:4;stroke-dasharray:none;stroke-opacity:1"
     d="m 336.0839,355.10678 c -13.19949,1.872 -5.5297,23.13694 6.18644,16.76271 9.96049,-4.24743 2.62845,-17.74788 -6.18644,-16.76271 z"
     id="path1442"
     inkscape:connector-curvature="0" />
  <path
     style="opacity:1;fill:#57a4ff;fill-opacity:1;stroke:none;stroke-width:14.49507618;stroke-linecap:square;stroke-linejoin:round;stroke-miterlimit:4;stroke-dasharray:none;stroke-opacity:1"
     d="m 460.61413,125.02843 c -12.86111,-0.17618 -24.93553,6.24035 -33.88364,15.14114 -5.70998,5.45445 -10.46299,11.88439 -14.41385,18.64942 -41.93911,-13.41537 -84.18742,-27.3681 -128.17682,-32.11447 -30.80004,-3.32959 -62.06736,-0.93983 -92.31615,5.49235 -6.50963,1.4822 -13.09372,2.9047 -19.47247,4.77512 -2.22884,1.51008 -0.78769,4.80808 -1.19992,7.10038 0.23411,4.70645 -0.4829,9.54777 0.45692,14.17809 1.44459,2.72943 4.71074,0.41878 6.89336,0.23821 31.36692,-7.82776 63.79249,-11.82545 96.04144,-9.48115 46.3419,3.15775 90.83828,17.77191 134.2471,33.72726 2.46125,0.10974 1.64281,2.64161 1.81645,4.34676 -0.0866,10.79882 0.4001,21.63656 -0.39732,32.41003 -0.0561,1.64392 -0.63237,2.56824 -2.37337,1.7687 -44.42139,-7.90391 -89.24062,-14.22009 -134.38843,-15.65384 -33.62831,-1.15752 -67.4482,0.39841 -100.70301,5.39733 -2.52715,1.3081 -0.9972,4.84898 -1.46005,7.15795 0.11628,4.70002 -0.44258,9.50801 0.10101,14.13985 1.3263,2.49823 4.71807,0.5323 6.94686,0.66878 39.52727,-4.8963 79.55975,-7.07589 119.30824,-3.60346 37.97889,3.12922 75.55078,9.52258 113.17056,15.54611 -0.017,6.50021 0.22168,13.20004 -1.57376,19.49712 -1.35973,3.11212 -4.44208,5.51834 -7.96094,5.10705 -11.91152,0.46098 -23.56223,3.351 -35.35451,4.88916 -51.27676,7.97735 -103.43892,11.91709 -155.24563,8.15115 -12.43465,-0.9032 -24.76096,-2.54699 -37.083,-4.44492 -3.27533,0.12478 -2.14941,4.0516 -2.41121,6.19917 0.0928,5.22269 -0.35133,10.53032 0.4,15.70241 1.60669,2.18292 4.92163,1.19236 7.26887,1.89536 28.79404,3.15842 57.7797,4.81715 86.74998,4.58605 27.91321,-0.43719 55.77171,-2.895 83.43199,-6.59152 20.28679,-2.87574 40.61511,-6.61536 60.85763,-9.0598 0.75432,12.67053 1.05563,25.55299 0.62321,38.18002 -11.36757,5.03315 -24.34095,6.57698 -34.60104,13.96536 -2.70404,2.39995 -6.79661,4.94905 -6.06209,9.14594 0.24754,5.96748 6.57038,9.17651 11.91819,9.13846 6.85419,0.12741 12.96082,-3.53125 19.40629,-5.32187 24.86583,-8.68795 50.76008,-16.79382 71.72401,-33.36914 12.80382,-10.21488 23.57113,-23.26165 30.32802,-38.23307 6.16328,-14.34047 8.5702,-30.03726 9.27778,-45.53785 0.32605,-20.98111 0.60459,-41.9794 0.0204,-62.95679 -0.74539,-12.54567 -4.01247,-26.01381 -13.49653,-34.9058 -10.01962,-9.51359 -23.36729,-16.53583 -37.49621,-15.93154 -0.30611,0.003 -0.61223,0.007 -0.91834,0.0105 z m 2.08088,22.65887 c 12.27518,0.19252 24.61574,9.20897 26.74956,21.61193 1.19464,15.52644 1.45884,31.15508 1.49857,46.75869 -0.26834,15.92668 -0.40974,32.0433 -4.43387,47.56989 -6.30636,19.48388 -19.08642,36.83213 -36.41111,47.86932 -4.94575,3.10526 -10.23677,5.66557 -15.71065,7.69278 -2.35326,-45.67224 -1.67475,-91.47251 -0.69398,-137.18586 0.23169,-6.69023 0.007,-13.86442 3.75911,-19.74091 4.07441,-7.06403 10.95188,-12.76972 19.1822,-13.99891 1.99563,-0.38296 4.02738,-0.58804 6.06017,-0.57693 z"
     id="path2659"
     inkscape:connector-curvature="0" />
  <path
     style="opacity:1;fill:#57a4ff;fill-opacity:1;stroke:none;stroke-width:20.49913406;stroke-linecap:square;stroke-linejoin:round;stroke-miterlimit:4;stroke-dasharray:none;stroke-opacity:1"
     d="m 49.964961,124.86972 c -13.446702,-0.007 -26.558022,5.86287 -35.745763,15.63771 -8.1839778,8.34828 -14.23010352,19.40142 -14.2474819,31.3323 -1.6970729,29.07313 -2.7828432,58.45516 1.4318041,87.36897 3.6390958,22.56433 16.3852148,42.92659 32.6461858,58.6356 12.4534,12.00947 27.647994,20.97356 44.023072,26.48952 50.100212,18.43217 101.289252,35.61222 154.569912,41.69704 18.07697,0.0586 36.26268,1.07902 54.2617,-1.01883 5.04202,-1.10038 10.78055,-1.24138 15.03938,-4.42621 6.47641,-6.26551 0.80632,-19.87077 -8.56779,-18.19491 -19.94355,1.64054 -40.02943,1.53652 -60.03134,0.67369 -45.60805,-4.1173 -88.97138,-20.10927 -132.29599,-33.99573 0.20899,-11.73076 -0.95008,-23.56003 0.4947,-35.1769 0.5359,-1.14373 -0.0389,-4.08244 2.04449,-3.13666 21.86115,3.30548 43.86477,7.68061 65.99365,9.90043 4.47354,0.68653 3.2405,-4.66514 3.34534,-7.42373 -0.21,-4.81144 0.44293,-9.794 -0.62818,-14.5053 -2.61918,-2.05341 -6.58382,-1.37085 -9.75975,-2.217 -20.3901,-2.87774 -41.00821,-4.60179 -60.61102,-10.55842 -1.86245,-6.71224 -0.24419,-13.82123 0.0953,-20.64831 22.94453,-4.28049 45.9434,-8.27807 69.02755,-11.47245 2.86753,-1.91816 1.32352,-6.20238 1.86652,-9.10488 -0.29139,-4.22018 0.67728,-8.68637 -0.52754,-12.73623 -3.64875,-1.34391 -7.82249,0.41722 -11.66801,0.52165 -19.98695,2.71661 -39.87571,6.10295 -59.72818,9.65526 -0.3206,-12.9424 0.0694,-25.89431 0.0593,-38.84004 23.3346,-8.75729 47.03596,-16.54547 70.98412,-23.50318 2.38926,-2.62259 0.42033,-6.81075 0.92141,-10.0783 -0.41653,-3.88716 0.42872,-8.05315 -0.88116,-11.74373 -3.33572,-1.36564 -6.89703,1.46438 -10.31544,1.86825 -20.94278,6.11312 -41.76423,12.63244 -62.639009,18.97179 -5.978815,-10.77908 -13.863024,-20.97135 -24.788133,-27.12863 -7.379455,-4.42186 -15.71667,-7.02817 -24.369707,-6.84277 z m 1.39089,22.8464 c 12.059305,0.25767 23.920203,9.57148 25.969282,21.64724 1.506224,30.18644 1.424608,60.51107 1.448065,90.7775 -0.377242,19.55571 0.05901,39.12936 -1.737263,58.61234 -0.02113,2.57433 -3.000749,-0.49414 -4.176906,-0.74577 C 60.020368,311.06174 48.069353,302.02939 39.410935,290.11231 30.839437,278.56648 24.899304,264.81855 22.241444,250.6854 c -1.55505,-17.08387 -0.799074,-34.28019 -1.104108,-51.44174 7.62e-4,-13.06487 0.171824,-26.63471 5.175083,-38.98199 5.142801,-7.96272 15.028651,-11.8358 24.167372,-12.52754 0.291861,-0.0111 0.58397,-0.018 0.87606,-0.018 z"
     id="path2661"
     inkscape:connector-curvature="0" />
  <path
     style="opacity:1;fill:#57a4ff;fill-opacity:1;stroke:none;stroke-width:57.98030472;stroke-linecap:square;stroke-linejoin:round;stroke-miterlimit:4;stroke-dasharray:none;stroke-opacity:1"
     d="m 338.45883,354.55467 c -6.46761,-1.23474 -11.20029,4.0032 -9.86054,10.35792 -0.73517,11.33429 18.14035,12.23518 19.53532,1.60597 -0.0767,-5.22347 -3.16093,-12.97419 -9.67478,-11.96389 z"
     id="path2663"
     inkscape:connector-curvature="0" />
</svg>
