<?xml version="1.0" encoding="UTF-8" standalone="no"?>
<svg
   xmlns:dc="http://purl.org/dc/elements/1.1/"
   xmlns:cc="http://creativecommons.org/ns#"
   xmlns:rdf="http://www.w3.org/1999/02/22-rdf-syntax-ns#"
   xmlns:svg="http://www.w3.org/2000/svg"
   xmlns="http://www.w3.org/2000/svg"
   xmlns:xlink="http://www.w3.org/1999/xlink"
   xmlns:sodipodi="http://sodipodi.sourceforge.net/DTD/sodipodi-0.dtd"
   xmlns:inkscape="http://www.inkscape.org/namespaces/inkscape"
   viewBox="0 0 66 49"
   fill="#fff"
   fill-rule="evenodd"
   stroke="#000"
   stroke-linecap="round"
   stroke-linejoin="round"
   version="1.1"
   id="svg2683"
   sodipodi:docname="govuk-icon.svg"
   inkscape:version="0.92.4 (5da689c313, 2019-01-14)">
  <metadata
     id="metadata2689">
    <rdf:RDF>
      <cc:Work
         rdf:about="">
        <dc:format>image/svg+xml</dc:format>
        <dc:type
           rdf:resource="http://purl.org/dc/dcmitype/StillImage" />
        <dc:title></dc:title>
      </cc:Work>
    </rdf:RDF>
  </metadata>
  <defs
     id="defs2687" />
  <sodipodi:namedview
     pagecolor="#ffffff"
     bordercolor="#666666"
     borderopacity="1"
     objecttolerance="10"
     gridtolerance="10"
     guidetolerance="10"
     inkscape:pageopacity="0"
     inkscape:pageshadow="2"
     inkscape:window-width="1280"
     inkscape:window-height="657"
     id="namedview2685"
     showgrid="false"
     inkscape:zoom="6.0854038"
     inkscape:cx="50.692229"
     inkscape:cy="47.663947"
     inkscape:window-x="-8"
     inkscape:window-y="1072"
     inkscape:window-maximized="1"
     inkscape:current-layer="svg2683" />
  <use
     xlink:href="#A"
     x=".5"
     y=".5"
     id="use2678" />
  <symbol
     id="A"
     overflow="visible">
    <path
       d="M58.342 12.7a3.46 3.46 0 0 1 3.351 3.461c0 1.868-1.538 3.406-3.406 3.35a3.46 3.46 0 0 1-3.351-3.461c0-1.868 1.538-3.35 3.406-3.35zm-7.8-4.505c1.868 0 3.406 1.483 3.406 3.35s-1.483 3.406-3.406 3.406-3.406-1.483-3.406-3.35c.055-1.868 1.538-3.406 3.406-3.406zm-8.57 2.747c1.868 0 3.406 1.538 3.406 3.406s-1.538 3.406-3.406 3.406-3.406-1.538-3.406-3.406c0-1.923 1.538-3.46 3.406-3.406zM25.876 7.746V4.56l2.142.66 1.648.494c.22.055.55.055.66-.055a1.05 1.05 0 0 0 .11-.714L29.008.385c-.055-.1-.055-.22-.1-.385h6.153l-1.538 4.834c-.055.22-.1.66.055.77.1.165.55.165.77.055l3.68-1.154v6.318l-4.45-2.307c-.055.44-.165.824-.055 1.1l2.197 6.757c.77 2.362-.494 4.615-2.857 5.22-2.912.77-5.658-1.923-4.834-4.834l2.307-7.142c.1-.275 0-.66-.055-1.1l-4.45 2.362.055-3.13zM22.03 10.93c1.868 0 3.406 1.538 3.406 3.406s-1.593 3.406-3.406 3.406c-1.868 0-3.406-1.538-3.406-3.406 0-1.923 1.538-3.406 3.406-3.406zm-8.625-2.747c1.868 0 3.406 1.483 3.406 3.406 0 1.868-1.483 3.406-3.406 3.406-1.868 0-3.406-1.538-3.406-3.406s1.538-3.35 3.406-3.406zm-2.088 29.17c-1.2-.604-2.142-1.428-3.57-1.428 1.1 2.197 2.252 4.175 4.56 5.164 2.527 1.044 5.054-.88 4.724-3.46-.165-1-.77-1.868-1.593-2.033-.714-.165-1.428.22-2.033 1.2-.055.1-.165.22-.275.44-.55-1.264-.934-2.417-.22-3.57.824-1.318 2.142-1.2 3.736-.824-3.186-3.24-3.626-6.537-.824-10.053 1.483 1.2 2.747 2.472 3.186 4.34s-.22 3.57-.824 5.44c1.264-.88 2.472-1.538 3.8-.44.88.714 1.1 2.197.494 3.736-.22-.275-.44-.55-.66-.77-.934-.824-2.033-.55-2.582.55-.604 1.264-.22 2.747 1 3.736 1.428 1.2 3.186 1.538 5 1.483.44 0 .824-.055 1.264-.165 2.747-.55 4.12-2.197 4.34-5.054.055-.494.055-1 .1-1.593-2.417.165-3.8 1.813-5.274 3.516l-.66-7.636c.934.604 1.758 1.264 2.747 1.703.934.385 2.033.55 3.076.66-.77-2.197-2.197-3.8-3.626-5.603h9.724c-.714.934-1.428 1.758-2.033 2.692-.604.88-1.154 1.813-1.813 2.857 2.472.055 4.34-.824 6.043-2.527l-.66 7.856c-1.483-1.703-2.857-3.35-5.22-3.516-.165 4.9 2.088 6.922 6.592 6.812 1.264-.055 2.472-.385 3.57-1.1 1.154-.77 1.868-1.813 1.703-3.24-.1-.824-.385-1.538-1.2-1.813-.824-.33-1.428.165-1.923.77-.055.1-.165.165-.275.275-.66-1.1-.44-2.857.44-3.626.934-.88 2.197-.714 3.955.604-1.758-4-1.373-7.36 2.252-9.888 2.197 2.747 3.02 5.988-.77 10.053 1.428-.385 2.747-.494 3.626.824.77 1.154.385 2.362-.165 3.626-.275-.33-.44-.66-.66-.88-.934-1.1-2.197-1-2.912.275-.604 1.044-.494 2.527.22 3.516.824 1.1 2.307 1.593 3.68 1.2 1.264-.385 2.252-1.154 3.02-2.197.714-.934 1.318-1.978 1.923-3.02-1.373-.1-2.362.66-3.516 1.373l2.142-7.197c.66 1.318 1.264 2.637 1.868 3.9l.275-.1c.66-1.538.22-3.13 0-4.78l4.56 1.593c-.165.22-.22.385-.33.55-2.857 4.065-4.505 8.68-5.823 13.404-.165.55-.33 1.1-.44 1.648-.055.604-.385.66-.934.604-8.185-1.154-16.37-1.593-24.666-1.428-6.482.1-12.965.494-19.447 1.428-.604.1-.88 0-1.044-.66-1.044-4.34-2.417-8.57-4.67-12.47-.55-1-1.2-1.978-1.868-3.076l4.56-1.648c-.22 1.648-.604 3.24.055 4.9 1.044-1.154 1.538-2.527 2.088-3.9.714 2.142 1.428 4.505 2.197 6.977zM5.713 12.7c1.868 0 3.35 1.538 3.35 3.406S7.526 19.5 5.658 19.5s-3.406-1.538-3.406-3.406c.055-1.868 1.593-3.406 3.46-3.406zM0 24.665c0-1.868 1.538-3.406 3.406-3.406s3.406 1.483 3.406 3.406c0 1.868-1.483 3.35-3.406 3.35C1.538 28.07 0 26.533 0 24.665zm60.594 3.406c-1.923 0-3.406-1.428-3.406-3.35s1.483-3.406 3.35-3.406A3.42 3.42 0 0 1 64 24.665c0 1.868-1.538 3.406-3.406 3.406z"
       stroke="none"
       fill="#000"
       fill-rule="nonzero"
       id="path2680" />
  </symbol>
  <path
     style="opacity:1;fill:#57a4ff;fill-opacity:1;stroke:none;stroke-width:8.78340912;stroke-linecap:square;stroke-linejoin:round;stroke-miterlimit:4;stroke-dasharray:none;stroke-opacity:1"
     d="m 16.29021,23.14476 c -1.276288,0.712029 -1.734846,2.405303 -2.076117,3.741004 -0.361802,2.158064 0.572783,4.317155 1.954473,5.936496 -1.536953,-0.484839 -3.122167,0.537913 -3.440526,2.088372 -0.135442,0.971835 -0.01973,2.497735 0.870543,2.925335 0.79729,-0.355953 1.830545,-2.064481 2.851852,-0.975855 1.573009,1.639754 0.228367,4.620876 -2.042529,4.603406 -2.637673,-0.08076 -4.320586,-2.48719 -5.5007565,-4.56891 0.9751834,0.09575 2.0731745,1.495374 2.9580355,0.648163 -0.0752,-1.910156 -0.980369,-3.759127 -1.51828,-5.595621 C 10.279574,31.027064 9.1181452,30.898064 8.8758308,31.814613 8.4536976,32.489867 8.1261986,33.219449 7.6916182,33.887098 7.3305096,32.576823 8.0547376,31.157121 7.5286697,29.9196 6.4092142,29.38241 5.1532812,30.543031 4.0237133,30.730007 c -0.7805937,0.07195 -1.65893,0.806824 -1.0312727,1.598869 3.0048988,4.596693 4.8306677,9.77341 6.2215422,15.042088 0.4050431,1.351815 2.2388962,0.462936 3.1958762,0.511086 10.895416,-1.32089 21.925342,-1.407384 32.855834,-0.739084 3.392056,0.146667 6.819046,0.961934 10.198339,0.795791 1.019784,-1.879872 1.329723,-4.273789 2.166675,-6.328709 1.10006,-3.418134 2.795091,-6.58884 4.592341,-9.677877 -0.041,-1.129475 -1.678199,-1.173561 -2.458061,-1.674591 -0.745849,-0.344506 -2.360411,-1.037737 -2.377285,0.352395 -0.06303,1.10329 0.147877,2.209332 0.01316,3.311165 -0.679554,-0.99704 -0.960561,-2.281833 -1.809228,-3.127338 -1.232192,0.463072 -0.970757,2.449323 -1.569115,3.534936 -0.146248,1.197377 -1.155007,2.497656 -0.703992,3.676098 0.938271,0.423185 1.803757,-0.766156 2.756051,-0.742573 -1.235799,2.022674 -2.897912,4.659735 -5.638741,4.342416 -2.516791,-0.08362 -3.436036,-4.075806 -0.988129,-5.020989 1.055491,-0.08305 1.455726,1.852284 2.490524,1.097519 1.052754,-1.582373 0.479581,-4.650063 -1.74659,-4.802666 -1.005085,0.09798 -1.28185,-0.07655 -0.551028,-0.839706 1.682828,-2.262639 1.839857,-5.461291 0.270974,-7.831509 -0.257806,-0.923197 -1.4323,-1.366776 -2.054782,-0.511086 -2.14912,1.786906 -3.334371,4.83106 -2.309419,7.534207 0.516587,1.170243 0.06775,1.025331 -0.906429,0.658602 -1.85262,-0.557251 -3.401983,1.34477 -3.187707,3.101013 -0.106188,1.018192 0.782939,2.27428 1.586364,0.974059 1.130106,-1.186864 2.468172,0.589048 2.086102,1.776546 -0.239994,2.018785 -2.591537,2.962479 -4.36284,3.118714 -2.194816,0.206856 -4.847428,-0.197854 -5.917887,-2.408822 -0.499762,-1.032829 -0.775152,-2.51839 -0.672219,-3.443703 2.015393,0.276931 3.118151,2.221783 4.697364,3.178628 0.970014,-0.724607 0.468999,-2.372436 0.773768,-3.476972 0.03245,-1.478877 0.424211,-3.016329 0.155809,-4.456663 -1.081712,-0.294491 -1.80826,1.159784 -2.88859,1.38892 -0.793022,0.332725 -1.788481,0.699653 -2.579942,0.602773 1.006235,-1.806039 2.452678,-3.381724 3.469576,-5.127655 -0.94258,-0.939698 -2.711808,-0.171328 -3.979298,-0.420307 -1.970456,0.12875 -4.060362,-0.267301 -5.961915,0.297301 -0.694845,0.966158 0.903184,1.819059 1.242764,2.649841 0.532127,0.805708 1.332414,1.833589 1.463359,2.599458 -1.94241,0.05815 -3.412409,-1.493836 -5.122208,-2.042983 -0.780822,0.904817 0.09079,2.368405 -0.04287,3.505574 0.274879,1.430203 -0.0873,3.077851 0.563938,4.379041 1.207673,0.01204 1.802437,-1.515009 2.847285,-2.050245 0.651582,-0.443675 1.406578,-0.926242 2.143294,-1.059845 0.201962,2.441879 -0.96261,5.368178 -3.701515,5.695477 -2.429318,0.421403 -5.493561,0.331774 -6.978186,-2.004855 -0.714584,-0.900452 -0.446519,-3.201104 0.997208,-3.052446 0.893102,-0.06817 1.778829,1.680563 2.327575,0.448449 0.08127,-1.485905 0.140674,-3.607832 -1.640378,-4.134986 -0.854806,-0.515782 -1.820284,-0.09918 -2.599458,0.345414 0.624569,-2.043284 1.123269,-4.387478 -0.172026,-6.296434 -0.702049,-1.050934 -1.548002,-2.638537 -2.898121,-2.829583 z"
     id="path3236"
     inkscape:connector-curvature="0" />
  <path
     style="opacity:1;fill:#57a4ff;fill-opacity:1;stroke:none;stroke-width:8.78340912;stroke-linecap:square;stroke-linejoin:round;stroke-miterlimit:4;stroke-dasharray:none;stroke-opacity:1"
     d="m 31.36634,0.20716329 c -0.719119,0.12763855 -2.474488,-0.39398811 -2.179605,0.89644311 0.394775,1.5205443 1.142549,3.1889389 1.255021,4.6624119 -1.333952,-0.099124 -2.572353,-0.8678482 -3.905315,-0.8415216 -0.81278,0.9496654 -0.317409,2.4668694 -0.528636,3.6424263 0.170217,0.9688991 -0.496885,2.426669 0.459644,3.044358 1.381789,-0.453992 2.615014,-1.329214 3.970675,-1.8854805 -0.622785,3.0265635 -2.085846,5.8744395 -2.477814,8.9353815 0.359076,2.811401 3.672192,4.867971 6.268748,3.462313 2.012839,-0.92308 3.265452,-3.462435 2.226356,-5.553862 -0.617936,-2.323455 -1.528373,-4.565104 -1.995324,-6.9282569 1.415,0.5960619 2.671805,1.6636379 4.148149,2.0211949 0.740017,-1.146529 0.132099,-2.8280101 0.329982,-4.1862754 0.04453,-1.159736 0.343752,-3.6402888 -1.536293,-2.5236839 C 36.411641,5.2345431 35.4408,5.6278345 34.413793,5.7537632 34.679018,3.9414899 35.661186,2.2440163 35.793635,0.44681998 34.525736,-0.11256811 32.776976,0.34624578 31.36634,0.20716329 Z"
     id="path3238"
     inkscape:connector-curvature="0" />
  <path
     style="opacity:1;fill:#57a4ff;fill-opacity:1;stroke:none;stroke-width:8.78340912;stroke-linecap:square;stroke-linejoin:round;stroke-miterlimit:4;stroke-dasharray:none;stroke-opacity:1"
     d="m 42.189472,11.113358 c -3.191345,0.07438 -4.760548,4.726411 -2.141477,6.641396 2.017605,1.761994 5.544461,0.576554 6.058593,-2.058415 0.613308,-2.38437 -1.446694,-4.81969 -3.917116,-4.582981 z"
     id="path3240"
     inkscape:connector-curvature="0" />
  <path
     style="opacity:1;fill:#57a4ff;fill-opacity:1;stroke:none;stroke-width:8.78340912;stroke-linecap:square;stroke-linejoin:round;stroke-miterlimit:4;stroke-dasharray:none;stroke-opacity:1"
     d="m 50.961906,8.371831 c -2.950414,-0.082067 -4.866363,3.887616 -2.786463,6.072664 1.300199,1.573159 3.823805,1.882992 5.327822,0.387173 2.263047,-1.724387 1.274897,-5.9917999 -1.636292,-6.3717813 -0.296956,-0.06365 -0.60142,-0.093247 -0.905067,-0.088056 z"
     id="path3242"
     inkscape:connector-curvature="0" />
  <path
     style="opacity:1;fill:#57a4ff;fill-opacity:1;stroke:none;stroke-width:8.78340912;stroke-linecap:square;stroke-linejoin:round;stroke-miterlimit:4;stroke-dasharray:none;stroke-opacity:1"
     d="m 58.627289,12.843153 c -3.085588,-0.05116 -4.585065,4.27658 -2.480538,6.347271 1.210023,1.140125 3.129091,1.741045 4.563463,0.616844 1.975299,-1.111258 2.532903,-4.167354 0.744842,-5.71908 -0.721442,-0.777236 -1.757225,-1.274687 -2.827767,-1.245035 z"
     id="path3244"
     inkscape:connector-curvature="0" />
  <path
     style="opacity:1;fill:#57a4ff;fill-opacity:1;stroke:none;stroke-width:8.78340912;stroke-linecap:square;stroke-linejoin:round;stroke-miterlimit:4;stroke-dasharray:none;stroke-opacity:1"
     d="m 61.088309,21.429036 c -2.184789,0.04391 -4.172519,2.236947 -3.758253,4.414585 0.458703,1.687487 1.880637,3.228062 3.7696,2.99934 2.814366,0.216395 4.927611,-3.45372 3.065609,-5.697748 -0.720247,-0.947308 -1.834836,-1.761194 -3.076956,-1.716177 z"
     id="path3246"
     inkscape:connector-curvature="0" />
  <path
     style="opacity:1;fill:#57a4ff;fill-opacity:1;stroke:none;stroke-width:8.78340912;stroke-linecap:square;stroke-linejoin:round;stroke-miterlimit:4;stroke-dasharray:none;stroke-opacity:1"
     d="m 22.397824,11.123344 c -2.64888,-0.02566 -4.655037,3.243174 -3.108728,5.509834 1.142696,2.461488 4.924441,2.586506 6.314136,0.287316 1.846948,-2.521458 -0.207365,-5.936148 -3.205408,-5.79715 z"
     id="path3248"
     inkscape:connector-curvature="0" />
  <path
     style="opacity:1;fill:#57a4ff;fill-opacity:1;stroke:none;stroke-width:8.78340912;stroke-linecap:square;stroke-linejoin:round;stroke-miterlimit:4;stroke-dasharray:none;stroke-opacity:1"
     d="m 13.902267,8.3554908 c -2.691678,-0.071866 -4.8213242,3.2275922 -3.262599,5.5502312 1.167378,2.240279 4.610789,2.658506 6.128493,0.548305 C 18.41299,12.679949 17.697309,9.6125389 15.509056,8.6745791 15.007383,8.4459001 14.452679,8.3407208 13.902267,8.3554908 Z"
     id="path3250"
     inkscape:connector-curvature="0" />
  <path
     style="opacity:1;fill:#57a4ff;fill-opacity:1;stroke:none;stroke-width:8.78340912;stroke-linecap:square;stroke-linejoin:round;stroke-miterlimit:4;stroke-dasharray:none;stroke-opacity:1"
     d="m 6.1156939,12.825451 c -2.8169292,0.0051 -4.8176295,3.608634 -3.0247581,5.905631 1.3606802,2.131171 4.6903106,2.090259 6.1098839,0.06128 1.7303433,-2.346486 -0.079325,-6.127934 -3.0851258,-5.966907 z"
     id="path3252"
     inkscape:connector-curvature="0" />
  <path
     style="opacity:1;fill:#57a4ff;fill-opacity:1;stroke:none;stroke-width:8.78340912;stroke-linecap:square;stroke-linejoin:round;stroke-miterlimit:4;stroke-dasharray:none;stroke-opacity:1"
     d="m 3.8285157,21.426766 c -3.13012322,-0.125353 -5.007929,4.389397 -2.5145798,6.400831 1.9937903,2.077858 5.9730614,0.775811 6.291896,-2.099266 0.3802085,-2.255669 -1.4890337,-4.395543 -3.7773162,-4.301565 z"
     id="path3254"
     inkscape:connector-curvature="0" />
</svg>
