<?xml version="1.0" encoding="UTF-8" standalone="no"?>
<svg
   xmlns:dc="http://purl.org/dc/elements/1.1/"
   xmlns:cc="http://creativecommons.org/ns#"
   xmlns:rdf="http://www.w3.org/1999/02/22-rdf-syntax-ns#"
   xmlns:svg="http://www.w3.org/2000/svg"
   xmlns="http://www.w3.org/2000/svg"
   id="svg8"
   version="1.1"
   viewBox="0 0 60.305852 32.425491"
   height="32.425491mm"
   width="60.305851mm">
  <defs
     id="defs2">
    <clipPath
       id="clipPath1028"
       clipPathUnits="userSpaceOnUse">
      <rect
         y="10.487065"
         x="4.2763124"
         height="263.52777"
         width="210.07385"
         id="rect1030"
         style="display:inline;opacity:1;fill:none;fill-opacity:1;stroke:#ffffff;stroke-width:7;stroke-linecap:square;stroke-linejoin:round;stroke-miterlimit:4;stroke-dasharray:none;stroke-opacity:1" />
    </clipPath>
    <clipPath
       id="clipPath1032"
       clipPathUnits="userSpaceOnUse">
      <rect
         y="10.487065"
         x="4.2763124"
         height="263.52777"
         width="210.07385"
         id="rect1034"
         style="display:inline;opacity:1;fill:none;fill-opacity:1;stroke:#ffffff;stroke-width:7;stroke-linecap:square;stroke-linejoin:round;stroke-miterlimit:4;stroke-dasharray:none;stroke-opacity:1" />
    </clipPath>
  </defs>
  <metadata
     id="metadata5">
    <rdf:RDF>
      <cc:Work
         rdf:about="">
        <dc:format>image/svg+xml</dc:format>
        <dc:type
           rdf:resource="http://purl.org/dc/dcmitype/StillImage" />
        <dc:title></dc:title>
      </cc:Work>
    </rdf:RDF>
  </metadata>
  <g
     transform="translate(-28.601841,-19.198402)"
     style="display:inline"
     id="layer2">
    <text
       id="text1080"
       y="36.668896"
       x="60.75967"
       style="font-style:normal;font-variant:normal;font-weight:normal;font-stretch:normal;font-size:10.58333302px;line-height:1.25;font-family:sans-serif;-inkscape-font-specification:sans-serif;letter-spacing:0px;word-spacing:0px;fill:#000000;fill-opacity:1;stroke:none;stroke-width:0.26458332"
       xml:space="preserve"><tspan
         style="font-style:normal;font-variant:normal;font-weight:normal;font-stretch:normal;font-family:sans-serif;-inkscape-font-specification:sans-serif;stroke-width:0.26458332"
         y="46.32439"
         x="60.75967"
         id="tspan1078" /></text>
    <text
       id="text1116"
       y="55.662201"
       x="62.271576"
       style="font-style:normal;font-variant:normal;font-weight:normal;font-stretch:normal;font-size:10.58333302px;line-height:1.25;font-family:Tapioca;-inkscape-font-specification:Tapioca;letter-spacing:0px;word-spacing:0px;fill:#000000;fill-opacity:1;stroke:none;stroke-width:0.26458332"
       xml:space="preserve"><tspan
         style="stroke-width:0.26458332"
         y="64.922615"
         x="62.271576"
         id="tspan1114" /></text>
  </g>
  <g
     id="layer5">
    <text
       id="text1084"
       y="28.17429"
       x="56.293808"
       style="font-style:normal;font-variant:normal;font-weight:normal;font-stretch:normal;font-size:12.45966339px;line-height:1.25;font-family:Tapioca;-inkscape-font-specification:Tapioca;letter-spacing:0px;word-spacing:0px;display:inline;fill:#000000;fill-opacity:1;stroke:none;stroke-width:0.31149158"
       xml:space="preserve"
       transform="translate(-28.601842,-19.198402)"><tspan
         style="font-style:normal;font-variant:normal;font-weight:300;font-stretch:normal;font-family:Calibri;-inkscape-font-specification:'Calibri Light';fill:#ffffff;stroke-width:0.31149158"
         y="28.17429"
         x="56.293808"
         id="tspan1082">COVID</tspan></text>
    <text
       transform="matrix(0.98296145,0,0,1.0173339,-28.601842,-19.198402)"
       id="text1084-2"
       y="40.971661"
       x="56.405106"
       style="font-style:normal;font-variant:normal;font-weight:normal;font-stretch:normal;font-size:11.79513264px;line-height:1.25;font-family:Tapioca;-inkscape-font-specification:Tapioca;letter-spacing:0px;word-spacing:0px;display:inline;fill:#000000;fill-opacity:1;stroke:none;stroke-width:0.2948783"
       xml:space="preserve"><tspan
         style="font-style:normal;font-variant:normal;font-weight:normal;font-stretch:normal;font-size:18.87221146px;font-family:Calibri;-inkscape-font-specification:Calibri;fill:#ffffff;stroke-width:0.2948783"
         y="40.971661"
         x="56.405106"
         id="tspan1082-4">RISK</tspan></text>
    <text
       transform="matrix(0.98296145,0,0,1.0173339,-28.601842,-19.198402)"
       id="text1084-2-6"
       y="49.653263"
       x="56.930336"
       style="font-style:normal;font-variant:normal;font-weight:normal;font-stretch:normal;font-size:6.93416929px;line-height:1.25;font-family:Tapioca;-inkscape-font-specification:Tapioca;letter-spacing:0px;word-spacing:0px;display:inline;fill:#000000;fill-opacity:1;stroke:none;stroke-width:0.17335424"
       xml:space="preserve"><tspan
         style="font-style:normal;font-variant:normal;font-weight:300;font-stretch:normal;font-size:11.09467125px;font-family:Calibri;-inkscape-font-specification:'Calibri Light';fill:#ffffff;stroke-width:0.17335424"
         y="49.653263"
         x="56.930336"
         id="tspan1082-4-6">FINDER</tspan></text>
  </g>
  <g
     transform="translate(-28.601841,-19.198402)"
     style="display:inline"
     id="layer3">
    <path
       transform="matrix(0.14003435,0,0,0.14003435,26.329906,16.073984)"
       clip-path="url(#clipPath1032)"
       id="path917"
       d="m 105.32812,30.558594 c -45.225234,0 -81.962886,36.737643 -81.962886,81.962886 0,16.22419 3.082317,27.45027 13.433594,44.66211 10.351277,17.21184 27.921061,40.87061 57.583984,83.87305 l 0.002,0.004 0.002,0.002 c 5.225593,7.54902 16.656798,7.54934 21.882808,0 l 0.002,-0.002 0.002,-0.004 c 29.66292,-43.00244 47.23271,-66.6612 57.58398,-83.87305 10.35128,-17.21184 13.4336,-28.43792 13.4336,-44.66211 0,-45.225242 -36.73764,-81.962886 -81.9629,-81.962886 z m 0,7 c 41.44221,0 74.9629,33.520697 74.9629,74.962886 0,15.41128 -2.42786,24.42064 -12.43164,41.05469 -10.00345,16.63349 -27.63325,40.42781 -57.34571,83.50195 -2.56597,3.70673 -7.79929,3.7069 -10.36719,0.004 -3.7e-4,-5.5e-4 3.8e-4,-0.001 0,-0.002 -8.6e-4,-0.001 -0.003,-7.1e-4 -0.004,-0.002 C 70.430589,194.00471 52.802189,170.20951 42.798828,153.57617 32.795035,136.94212 30.365234,127.93276 30.365234,112.52148 c 0,-41.442188 33.520708,-74.962886 74.962886,-74.962886 z m 0,38.769531 c -19.947258,0 -36.191401,16.246089 -36.191401,36.193355 0,19.94728 16.244143,36.19141 36.191401,36.19141 19.94728,0 36.19336,-16.24413 36.19336,-36.19141 0,-19.947266 -16.24608,-36.193355 -36.19336,-36.193355 z m 0,7 c 16.16425,0 29.19336,13.029126 29.19336,29.193355 0,16.16425 -13.02911,29.19141 -29.19336,29.19141 -16.16422,0 -29.191401,-13.02716 -29.191401,-29.19141 0,-16.164229 13.027181,-29.193355 29.191401,-29.193355 z"
       style="color:#000000;font-style:normal;font-variant:normal;font-weight:normal;font-stretch:normal;font-size:medium;line-height:normal;font-family:sans-serif;font-variant-ligatures:normal;font-variant-position:normal;font-variant-caps:normal;font-variant-numeric:normal;font-variant-alternates:normal;font-feature-settings:normal;text-indent:0;text-align:start;text-decoration:none;text-decoration-line:none;text-decoration-style:solid;text-decoration-color:#000000;letter-spacing:normal;word-spacing:normal;text-transform:none;writing-mode:lr-tb;direction:ltr;text-orientation:mixed;dominant-baseline:auto;baseline-shift:baseline;text-anchor:start;white-space:normal;shape-padding:0;clip-rule:nonzero;display:inline;overflow:visible;visibility:visible;opacity:1;isolation:auto;mix-blend-mode:normal;color-interpolation:sRGB;color-interpolation-filters:linearRGB;solid-color:#000000;solid-opacity:1;vector-effect:none;fill:#ffffff;fill-opacity:1;fill-rule:nonzero;stroke:none;stroke-width:7;stroke-linecap:butt;stroke-linejoin:miter;stroke-miterlimit:4;stroke-dasharray:none;stroke-dashoffset:0;stroke-opacity:1;color-rendering:auto;image-rendering:auto;shape-rendering:auto;text-rendering:auto;enable-background:accumulate" />
  </g>
  <g
     transform="translate(-28.601841,-19.198402)"
     style="display:inline"
     id="layer1">
    <g
       style="fill:#ffffff;stroke:#ffffff;stroke-width:0;stroke-miterlimit:4;stroke-dasharray:none;stroke-opacity:1"
       transform="matrix(0.02710923,0,0,0.02710923,34.13473,24.904169)"
       id="g865">
      <path
         style="fill:#ffffff;stroke:#ffffff;stroke-width:0;stroke-miterlimit:4;stroke-dasharray:none;stroke-opacity:1"
         d="m 256,112.226 c -12.976,0 -23.532,10.557 -23.532,23.532 0,12.975 10.556,23.532 23.532,23.532 12.976,0 23.532,-10.557 23.532,-23.532 0,-12.975 -10.556,-23.532 -23.532,-23.532 z m 0,32.064 c -4.705,0 -8.532,-3.827 -8.532,-8.532 0,-4.704 3.828,-8.532 8.532,-8.532 4.704,0 8.532,3.828 8.532,8.532 0,4.705 -3.827,8.532 -8.532,8.532 z"
         id="path815" />
      <path
         style="fill:#ffffff;stroke:#ffffff;stroke-width:0;stroke-miterlimit:4;stroke-dasharray:none;stroke-opacity:1"
         d="m 256,352.71 c -12.976,0 -23.532,10.557 -23.532,23.532 0,12.975 10.557,23.532 23.532,23.532 12.975,0 23.532,-10.557 23.532,-23.532 0,-12.975 -10.556,-23.532 -23.532,-23.532 z m 0,32.064 c -4.705,0 -8.532,-3.828 -8.532,-8.532 0,-4.705 3.828,-8.532 8.532,-8.532 4.704,0 8.532,3.827 8.532,8.532 0,4.704 -3.827,8.532 -8.532,8.532 z"
         id="path817" />
      <path
         style="fill:#ffffff;stroke:#ffffff;stroke-width:0;stroke-miterlimit:4;stroke-dasharray:none;stroke-opacity:1"
         d="m 466.168,263.5 c 3.139,9.308 11.946,16.032 22.3,16.032 12.975,0 23.532,-10.556 23.532,-23.532 0,-12.976 -10.557,-23.532 -23.532,-23.532 -10.354,0 -19.16,6.724 -22.3,16.032 H 431.66 c -0.277,-6.542 -0.9,-13.025 -1.886,-19.419 l 16.38,-3.258 c 4.062,-0.809 6.701,-4.757 5.893,-8.819 -0.808,-4.062 -4.758,-6.701 -8.819,-5.893 l -16.382,3.258 c -1.542,-6.343 -3.434,-12.575 -5.659,-18.674 l 31.86,-13.197 c 2.356,2.707 5.308,4.867 8.72,6.28 2.904,1.203 5.954,1.804 9.005,1.804 3.051,0 6.102,-0.602 9.005,-1.804 5.807,-2.405 10.331,-6.928 12.736,-12.735 2.406,-5.808 2.405,-12.204 0,-18.011 -2.405,-5.808 -6.928,-10.33 -12.735,-12.736 -5.808,-2.405 -12.204,-2.405 -18.011,0 -5.807,2.406 -10.33,6.928 -12.735,12.736 -1.413,3.412 -1.973,7.027 -1.725,10.607 l -31.851,13.193 c -2.745,-5.903 -5.816,-11.648 -9.201,-17.21 l 13.877,-9.272 c 3.444,-2.302 4.37,-6.959 2.069,-10.403 -2.301,-3.444 -6.958,-4.37 -10.403,-2.069 l -13.886,9.279 c -3.835,-5.237 -7.965,-10.273 -12.383,-15.081 l 24.378,-24.378 c 3.214,1.601 6.777,2.453 10.473,2.453 6.286,0 12.195,-2.448 16.64,-6.892 4.445,-4.445 6.893,-10.354 6.893,-16.64 0,-6.286 -2.448,-12.195 -6.893,-16.64 -4.444,-4.444 -10.354,-6.893 -16.64,-6.893 -6.285,0 -12.195,2.448 -16.64,6.893 -7.319,7.32 -8.78,18.294 -4.422,27.095 l -24.391,24.391 c -4.767,-4.374 -9.809,-8.496 -15.093,-12.366 l 9.287,-13.898 c 2.301,-3.444 1.375,-8.102 -2.069,-10.403 -3.444,-2.301 -8.102,-1.375 -10.403,2.069 0,0 -13.231,19.706 -13.393,19.947 -2.303,3.443 -1.38,8.101 2.063,10.404 44.784,29.962 71.52,79.974 71.52,133.779 0,88.687 -72.152,160.839 -160.839,160.839 C 167.313,416.836 95.161,344.687 95.161,256 95.161,167.313 167.313,95.161 256,95.161 c 21.328,0 42.042,4.105 61.565,12.202 3.813,1.581 8.184,-0.218 9.783,-4.018 h 10e-4 L 343.356,64.7 c 0.526,0.036 1.051,0.06 1.574,0.06 9.238,0 18.022,-5.475 21.772,-14.527 4.965,-11.988 -0.748,-25.781 -12.736,-30.746 -5.807,-2.405 -12.203,-2.406 -18.011,0 -5.807,2.406 -10.33,6.928 -12.735,12.735 -2.405,5.807 -2.406,12.204 0,18.011 1.413,3.412 3.574,6.364 6.281,8.72 L 316.314,90.79 c -6.133,-2.242 -12.363,-4.132 -18.678,-5.667 l 3.252,-16.351 c 0.808,-4.062 -1.83,-8.011 -5.893,-8.819 -4.063,-0.807 -8.011,1.831 -8.819,5.893 l -3.255,16.364 c -6.406,-0.983 -12.885,-1.611 -19.422,-1.883 V 45.832 c 9.308,-3.14 16.032,-11.946 16.032,-22.3 C 279.532,10.557 268.976,0 256,0 c -12.976,0 -23.532,10.557 -23.532,23.532 0,10.354 6.724,19.16 16.032,22.3 v 34.5 c -6.571,0.277 -13.052,0.906 -19.42,1.889 l -3.257,-16.374 c -0.808,-4.062 -4.756,-6.7 -8.819,-5.893 -4.063,0.808 -6.701,4.756 -5.893,8.819 l 3.258,16.381 c -6.365,1.551 -12.599,3.438 -18.673,5.662 L 182.498,58.954 c 2.707,-2.356 4.867,-5.308 6.281,-8.72 2.406,-5.808 2.405,-12.204 0,-18.011 -2.405,-5.808 -6.928,-10.33 -12.735,-12.736 -5.808,-2.405 -12.203,-2.405 -18.011,0 -11.988,4.965 -17.701,18.758 -12.736,30.747 3.75,9.053 12.533,14.527 21.772,14.527 0.523,0 1.048,-0.024 1.574,-0.06 l 13.207,31.884 c -5.915,2.762 -11.656,5.835 -17.191,9.214 l -9.308,-13.93 c -2.301,-3.444 -6.958,-4.37 -10.403,-2.069 -3.444,2.301 -4.37,6.959 -2.069,10.403 l 9.325,13.956 c -5.248,3.851 -10.277,7.982 -15.061,12.378 l -24.461,-24.461 c 4.359,-8.801 2.898,-19.775 -4.422,-27.095 -4.445,-4.444 -10.354,-6.893 -16.64,-6.893 -6.286,0 -12.195,2.448 -16.64,6.893 -4.445,4.445 -6.893,10.354 -6.893,16.64 0,6.286 2.448,12.195 6.893,16.64 4.444,4.445 10.354,6.893 16.64,6.893 3.696,0 7.258,-0.853 10.473,-2.453 l 24.443,24.443 c -4.396,4.784 -8.527,9.813 -12.378,15.062 l -13.955,-9.325 c -3.444,-2.301 -8.102,-1.375 -10.403,2.069 -2.301,3.444 -1.375,8.101 2.069,10.403 l 13.929,9.308 c -3.379,5.536 -6.452,11.276 -9.214,17.191 L 64.693,168.643 c 0.248,-3.58 -0.312,-7.195 -1.725,-10.607 -2.405,-5.808 -6.928,-10.33 -12.735,-12.736 -5.808,-2.406 -12.204,-2.405 -18.011,0 -5.807,2.406 -10.33,6.928 -12.735,12.735 -2.405,5.807 -2.406,12.204 0,18.011 2.405,5.807 6.929,10.33 12.736,12.735 2.903,1.203 5.955,1.804 9.005,1.804 3.05,0 6.102,-0.601 9.005,-1.804 3.412,-1.413 6.364,-3.574 8.72,-6.28 l 31.862,13.197 c -2.225,6.074 -4.111,12.309 -5.662,18.673 l -16.38,-3.258 c -4.066,-0.808 -8.011,1.83 -8.819,5.893 -0.808,4.063 1.83,8.011 5.893,8.819 l 16.374,3.257 c -0.982,6.367 -1.612,12.849 -1.889,19.42 h -34.5 C 42.693,239.194 33.886,232.47 23.532,232.47 10.557,232.468 0,243.024 0,256 c 0,12.976 10.557,23.532 23.532,23.532 10.354,0 19.16,-6.724 22.3,-16.032 h 34.5 c 0.277,6.571 0.906,13.053 1.889,19.42 l -16.374,3.257 c -4.062,0.809 -6.701,4.757 -5.893,8.819 0.71,3.569 3.843,6.038 7.348,6.038 0.485,0 0.978,-0.047 1.471,-0.146 l 16.38,-3.258 c 1.551,6.364 3.438,12.599 5.662,18.673 L 58.953,329.5 c -2.356,-2.707 -5.308,-4.867 -8.72,-6.28 -5.808,-2.405 -12.204,-2.405 -18.011,0 -5.807,2.405 -10.331,6.928 -12.736,12.735 -2.406,5.808 -2.405,12.204 0,18.011 2.405,5.808 6.928,10.33 12.735,12.736 2.904,1.203 5.955,1.804 9.006,1.804 3.05,0 6.102,-0.602 9.005,-1.804 5.807,-2.406 10.33,-6.928 12.735,-12.736 1.413,-3.412 1.973,-7.027 1.725,-10.607 L 96.583,330.15 c 2.762,5.915 5.835,11.655 9.214,17.191 l -13.929,9.307 c -3.444,2.302 -4.37,6.959 -2.069,10.403 1.446,2.164 3.822,3.334 6.243,3.334 1.432,0 2.88,-0.41 4.16,-1.265 l 13.955,-9.325 c 3.851,5.248 7.983,10.277 12.378,15.062 L 102.093,399.3 c -3.214,-1.601 -6.777,-2.453 -10.473,-2.453 -6.286,0 -12.195,2.448 -16.64,6.892 -4.445,4.445 -6.893,10.354 -6.893,16.64 0,6.286 2.448,12.195 6.893,16.64 4.444,4.444 10.354,6.893 16.64,6.893 6.285,0 12.195,-2.448 16.64,-6.893 7.319,-7.32 8.78,-18.294 4.422,-27.095 l 24.461,-24.461 c 4.784,4.396 9.813,8.527 15.061,12.378 l -9.325,13.956 c -2.301,3.444 -1.375,8.102 2.069,10.403 1.28,0.855 2.728,1.265 4.16,1.265 2.421,0 4.797,-1.17 6.243,-3.334 l 9.308,-13.93 c 5.536,3.379 11.277,6.452 17.191,9.214 L 168.643,447.3 c -9.8,-0.661 -19.383,4.901 -23.345,14.466 -4.965,11.988 0.748,25.781 12.736,30.746 2.904,1.203 5.954,1.804 9.005,1.804 3.05,0 6.102,-0.602 9.005,-1.804 5.807,-2.406 10.33,-6.928 12.735,-12.735 2.405,-5.807 2.406,-12.204 0,-18.011 -1.413,-3.412 -3.574,-6.364 -6.281,-8.72 l 13.198,-31.862 c 6.074,2.224 12.309,4.111 18.673,5.662 l -3.258,16.381 c -0.808,4.062 1.83,8.011 5.893,8.819 0.494,0.098 0.986,0.146 1.471,0.146 3.505,0 6.638,-2.47 7.348,-6.039 l 3.257,-16.374 c 6.367,0.982 12.849,1.611 19.42,1.889 v 34.5 c -9.308,3.14 -16.032,11.946 -16.032,22.3 0,12.975 10.556,23.532 23.532,23.532 12.976,0 23.532,-10.557 23.532,-23.532 0,-10.354 -6.724,-19.16 -16.032,-22.3 v -34.5 c 6.571,-0.277 13.052,-0.906 19.42,-1.889 l 3.257,16.374 c 0.71,3.569 3.843,6.039 7.348,6.039 0.485,0 0.977,-0.047 1.471,-0.146 4.063,-0.808 6.701,-4.756 5.893,-8.819 l -3.258,-16.381 c 6.365,-1.551 12.599,-3.438 18.673,-5.662 l 13.198,31.862 c -2.707,2.356 -4.867,5.308 -6.281,8.72 -2.406,5.808 -2.405,12.204 0,18.011 2.405,5.808 6.928,10.33 12.735,12.736 2.904,1.203 5.955,1.804 9.005,1.804 3.05,0 6.102,-0.602 9.005,-1.804 11.988,-4.965 17.701,-18.758 12.736,-30.747 -3.963,-9.565 -13.545,-15.129 -23.346,-14.467 l -13.207,-31.884 c 5.915,-2.762 11.656,-5.835 17.191,-9.214 l 9.308,13.93 c 1.446,2.164 3.822,3.334 6.243,3.334 1.432,0 2.88,-0.409 4.16,-1.265 3.444,-2.301 4.37,-6.959 2.069,-10.403 l -9.325,-13.956 c 5.248,-3.851 10.277,-7.982 15.061,-12.378 l 24.461,24.461 c -4.359,8.801 -2.898,19.775 4.421,27.095 4.445,4.444 10.354,6.893 16.64,6.893 6.286,0 12.195,-2.448 16.64,-6.893 4.445,-4.445 6.893,-10.354 6.893,-16.64 0,-6.286 -2.448,-12.195 -6.893,-16.64 -4.444,-4.445 -10.354,-6.893 -16.64,-6.893 -3.696,0 -7.258,0.853 -10.473,2.453 l -24.443,-24.443 c 4.396,-4.784 8.527,-9.813 12.378,-15.062 l 13.955,9.325 c 1.28,0.855 2.728,1.265 4.16,1.265 2.421,0 4.797,-1.17 6.243,-3.334 2.301,-3.444 1.375,-8.101 -2.069,-10.403 L 406.2,347.34 c 3.379,-5.536 6.452,-11.277 9.214,-17.191 l 31.891,13.209 c -0.248,3.58 0.312,7.195 1.725,10.607 2.405,5.808 6.928,10.33 12.735,12.736 2.904,1.203 5.955,1.804 9.005,1.804 3.051,0 6.102,-0.602 9.006,-1.804 5.807,-2.406 10.33,-6.928 12.735,-12.735 2.405,-5.807 2.406,-12.204 0,-18.011 -2.405,-5.807 -6.929,-10.33 -12.736,-12.735 -5.807,-2.406 -12.203,-2.406 -18.011,0 -3.412,1.413 -6.364,3.574 -8.72,6.28 l -31.862,-13.197 c 2.225,-6.074 4.111,-12.309 5.662,-18.673 l 16.38,3.258 c 0.494,0.099 0.986,0.146 1.471,0.146 3.505,0 6.638,-2.47 7.348,-6.038 0.808,-4.062 -1.83,-8.011 -5.893,-8.819 l -16.374,-3.257 c 0.982,-6.367 1.612,-12.849 1.889,-19.42 z m -3.279,-99.727 c 0.873,-2.105 2.512,-3.746 4.618,-4.618 1.053,-0.436 2.159,-0.654 3.265,-0.654 1.106,0 2.212,0.218 3.266,0.654 2.105,0.872 3.745,2.512 4.617,4.618 0.873,2.105 0.873,4.425 0,6.53 -0.872,2.105 -2.512,3.745 -4.618,4.617 -2.105,0.872 -4.424,0.873 -6.53,0 -2.105,-0.872 -3.745,-2.512 -4.617,-4.617 -0.873,-2.105 -0.873,-4.424 -10e-4,-6.53 z M 159.156,44.493 c -1.8,-4.347 0.271,-9.348 4.618,-11.148 1.053,-0.436 2.159,-0.654 3.265,-0.654 1.106,0 2.212,0.218 3.265,0.654 2.105,0.873 3.745,2.512 4.617,4.618 0.873,2.105 0.873,4.425 0,6.53 -0.872,2.104 -2.511,3.744 -4.616,4.616 h -0.001 c -0.001,10e-4 -0.002,10e-4 -0.002,10e-4 -4.346,1.801 -9.346,-0.271 -11.146,-4.617 z m 177.923,-6.531 c 0.872,-2.105 2.512,-3.745 4.617,-4.618 1.053,-0.436 2.159,-0.654 3.265,-0.654 1.106,0 2.212,0.218 3.265,0.654 4.347,1.8 6.418,6.801 4.618,11.147 -1.8,4.346 -6.8,6.417 -11.146,4.619 0,0 -10e-4,0 -0.002,-10e-4 0,0 -0.001,0 -0.002,0 -2.104,-0.873 -3.743,-2.512 -4.616,-4.617 -0.871,-2.104 -0.871,-4.424 0.001,-6.53 z M 256,15 c 4.705,0 8.532,3.828 8.532,8.532 0,4.704 -3.828,8.532 -8.532,8.532 -4.704,0 -8.532,-3.828 -8.532,-8.532 C 247.468,18.828 251.295,15 256,15 Z M 44.493,174.921 c -2.106,0.873 -4.425,0.873 -6.53,0 -2.106,-0.872 -3.746,-2.512 -4.618,-4.617 -0.873,-2.105 -0.873,-4.425 0,-6.53 0.872,-2.105 2.512,-3.746 4.617,-4.618 1.053,-0.436 2.159,-0.654 3.266,-0.654 1.106,0 2.212,0.218 3.265,0.654 2.105,0.872 3.745,2.512 4.618,4.618 0.872,2.105 0.872,4.425 0,6.53 -0.873,2.105 -2.512,3.745 -4.618,4.617 z m 4.618,173.306 c -0.873,2.105 -2.512,3.746 -4.618,4.618 -2.106,0.873 -4.425,0.873 -6.531,0 -2.105,-0.872 -3.745,-2.512 -4.617,-4.618 -0.873,-2.105 -0.873,-4.425 0,-6.53 0.872,-2.105 2.512,-3.745 4.618,-4.617 1.053,-0.436 2.159,-0.654 3.265,-0.654 1.106,0 2.212,0.218 3.265,0.654 2.105,0.872 3.745,2.512 4.617,4.617 0.873,2.105 0.873,4.424 10e-4,6.53 z M 85.587,97.653 c -1.612,-1.611 -2.499,-3.754 -2.499,-6.033 0,-2.279 0.887,-4.421 2.499,-6.034 1.612,-1.611 3.754,-2.499 6.033,-2.499 2.279,0 4.421,0.888 6.033,2.499 3.327,3.327 3.327,8.74 0,12.066 -1.612,1.612 -3.754,2.5 -6.033,2.5 -2.279,0.001 -4.421,-0.886 -6.033,-2.499 z M 23.532,264.532 C 18.827,264.532 15,260.704 15,256 c 0,-4.704 3.828,-8.532 8.532,-8.532 4.704,0 8.532,3.828 8.532,8.532 0,4.704 -3.827,8.532 -8.532,8.532 z m 74.122,161.881 c -1.612,1.612 -3.754,2.5 -6.033,2.5 -2.279,0 -4.421,-0.888 -6.033,-2.5 -1.612,-1.612 -2.499,-3.754 -2.499,-6.033 0,-2.279 0.887,-4.421 2.499,-6.033 1.612,-1.612 3.754,-2.499 6.033,-2.499 2.279,0 4.421,0.888 6.033,2.499 3.326,3.326 3.326,8.739 0,12.066 z m 77.267,47.625 c -0.872,2.105 -2.512,3.745 -4.617,4.618 -2.105,0.872 -4.424,0.872 -6.53,0 -4.347,-1.8 -6.418,-6.801 -4.618,-11.148 1.8,-4.346 6.799,-6.416 11.144,-4.62 10e-4,0 0.003,0.001 0.004,0.002 0.001,0.001 0.003,0.001 0.004,0.001 2.104,0.873 3.741,2.512 4.614,4.616 0.871,2.105 0.871,4.425 -0.001,6.531 z m 177.923,-6.531 c 1.8,4.347 -0.271,9.348 -4.618,11.148 -2.105,0.873 -4.424,0.873 -6.53,0 -2.105,-0.873 -3.745,-2.512 -4.617,-4.618 -0.873,-2.105 -0.873,-4.425 0,-6.53 0.872,-2.104 2.511,-3.744 4.615,-4.616 h 10e-4 c 0.001,-0.001 0.002,-0.001 0.002,-0.001 1.064,-0.441 2.167,-0.649 3.252,-0.649 3.351,-10e-4 6.536,1.984 7.895,5.266 z M 256,497 c -4.705,0 -8.532,-3.828 -8.532,-8.532 0,-4.704 3.828,-8.532 8.532,-8.532 4.704,0 8.532,3.828 8.532,8.532 0,4.704 -3.827,8.532 -8.532,8.532 z M 467.507,337.079 c 2.106,-0.873 4.425,-0.873 6.53,0 2.106,0.872 3.746,2.512 4.618,4.617 0.873,2.105 0.873,4.425 0,6.53 -0.872,2.105 -2.512,3.746 -4.617,4.618 -2.106,0.873 -4.425,0.873 -6.531,0 -2.105,-0.872 -3.745,-2.512 -4.618,-4.618 -0.872,-2.105 -0.872,-4.425 0,-6.53 0.873,-2.105 2.512,-3.745 4.618,-4.617 z m 20.961,-89.611 c 4.705,0 8.532,3.828 8.532,8.532 0,4.704 -3.828,8.532 -8.532,8.532 -4.704,0 -8.532,-3.828 -8.532,-8.532 0,-4.704 3.827,-8.532 8.532,-8.532 z M 414.346,85.587 c 1.612,-1.612 3.754,-2.5 6.033,-2.5 2.279,0 4.421,0.888 6.033,2.5 1.612,1.612 2.499,3.754 2.499,6.033 0,2.279 -0.887,4.421 -2.499,6.033 -1.612,1.612 -3.754,2.499 -6.033,2.499 -2.279,0 -4.421,-0.888 -6.033,-2.499 -3.326,-3.326 -3.326,-8.739 0,-12.066 z m 12.067,328.76 c 1.612,1.611 2.499,3.754 2.499,6.033 0,2.279 -0.887,4.421 -2.499,6.034 -1.612,1.611 -3.754,2.499 -6.033,2.499 -2.279,0 -4.421,-0.888 -6.033,-2.499 -3.327,-3.327 -3.327,-8.74 0,-12.066 1.612,-1.612 3.754,-2.5 6.033,-2.5 2.279,-0.001 4.421,0.886 6.033,2.499 z"
         id="path819" />
      <path
         style="fill:#ffffff;stroke:#ffffff;stroke-width:0;stroke-miterlimit:4;stroke-dasharray:none;stroke-opacity:1"
         d="m 399.774,256 c 0,-12.976 -10.557,-23.532 -23.533,-23.532 -12.976,0 -23.532,10.557 -23.532,23.532 0,12.975 10.557,23.532 23.532,23.532 12.977,0 23.533,-10.556 23.533,-23.532 z m -32.065,0 c 0,-4.705 3.828,-8.532 8.532,-8.532 4.705,0 8.533,3.828 8.533,8.532 0,4.704 -3.828,8.532 -8.533,8.532 -4.704,0 -8.532,-3.827 -8.532,-8.532 z"
         id="path821" />
      <path
         style="fill:#ffffff;stroke:#ffffff;stroke-width:0;stroke-miterlimit:4;stroke-dasharray:none;stroke-opacity:1"
         d="m 112.226,256 c 0,12.976 10.557,23.532 23.533,23.532 12.976,0 23.532,-10.557 23.532,-23.532 0,-12.975 -10.557,-23.532 -23.532,-23.532 -12.977,0 -23.533,10.556 -23.533,23.532 z m 32.065,0 c 0,4.705 -3.828,8.532 -8.532,8.532 -4.705,0 -8.533,-3.828 -8.533,-8.532 0,-4.704 3.828,-8.532 8.533,-8.532 4.704,0 8.532,3.827 8.532,8.532 z"
         id="path823" />
      <path
         style="fill:#ffffff;stroke:#ffffff;stroke-width:0;stroke-miterlimit:4;stroke-dasharray:none;stroke-opacity:1"
         d="m 154.336,154.336 c -4.445,4.445 -6.893,10.354 -6.893,16.64 0,6.286 2.448,12.195 6.893,16.64 4.444,4.444 10.354,6.893 16.64,6.893 6.286,0 12.195,-2.448 16.64,-6.893 4.445,-4.445 6.893,-10.354 6.893,-16.64 0,-6.286 -2.448,-12.195 -6.893,-16.64 -4.444,-4.445 -10.354,-6.893 -16.64,-6.893 -6.286,0 -12.195,2.449 -16.64,6.893 z m 25.172,16.64 c 0,2.279 -0.887,4.421 -2.499,6.034 -1.612,1.611 -3.754,2.499 -6.033,2.499 -2.279,0 -4.421,-0.888 -6.033,-2.5 -1.612,-1.612 -2.499,-3.754 -2.499,-6.033 0,-2.279 0.887,-4.421 2.499,-6.033 1.612,-1.612 3.754,-2.499 6.033,-2.499 2.279,0 4.421,0.887 6.033,2.499 1.612,1.612 2.499,3.754 2.499,6.033 z"
         id="path825" />
      <path
         style="fill:#ffffff;stroke:#ffffff;stroke-width:0;stroke-miterlimit:4;stroke-dasharray:none;stroke-opacity:1"
         d="m 341.024,364.556 c 6.286,0 12.195,-2.448 16.64,-6.892 4.445,-4.445 6.893,-10.354 6.893,-16.64 0,-6.286 -2.448,-12.195 -6.893,-16.64 -4.444,-4.444 -10.354,-6.893 -16.64,-6.893 -6.286,0 -12.195,2.448 -16.64,6.893 -4.445,4.445 -6.893,10.354 -6.893,16.64 0,6.286 2.448,12.195 6.893,16.64 4.445,4.444 10.354,6.892 16.64,6.892 z m -6.033,-29.566 c 1.612,-1.611 3.754,-2.499 6.033,-2.499 2.279,0 4.421,0.888 6.033,2.499 1.612,1.612 2.499,3.754 2.499,6.033 0,2.279 -0.887,4.421 -2.499,6.033 -1.612,1.612 -3.754,2.499 -6.033,2.499 -2.279,0 -4.421,-0.887 -6.033,-2.5 -1.612,-1.611 -2.499,-3.754 -2.499,-6.033 0,-2.279 0.887,-4.419 2.499,-6.032 z"
         id="path827" />
      <path
         style="fill:#ffffff;stroke:#ffffff;stroke-width:0;stroke-miterlimit:4;stroke-dasharray:none;stroke-opacity:1"
         d="m 347.057,177.01 c -1.612,1.611 -3.754,2.499 -6.033,2.499 -2.279,0 -4.421,-0.888 -6.033,-2.5 -1.612,-1.612 -2.499,-3.754 -2.499,-6.033 0,-2.279 0.887,-4.421 2.499,-6.033 2.929,-2.929 2.929,-7.678 0,-10.607 -2.929,-2.929 -7.678,-2.929 -10.606,0 -4.445,4.445 -6.893,10.354 -6.893,16.64 0,6.286 2.448,12.195 6.893,16.64 4.444,4.444 10.354,6.893 16.64,6.893 6.286,0 12.195,-2.448 16.64,-6.893 2.929,-2.929 2.929,-7.678 0,-10.607 -2.93,-2.928 -7.679,-2.928 -10.608,0.001 z"
         id="path829" />
      <path
         style="fill:#ffffff;stroke:#ffffff;stroke-width:0;stroke-miterlimit:4;stroke-dasharray:none;stroke-opacity:1"
         d="m 170.976,364.556 c 6.286,0 12.195,-2.448 16.64,-6.893 2.929,-2.929 2.929,-7.678 0,-10.607 -2.929,-2.929 -7.678,-2.928 -10.606,0 -1.612,1.612 -3.754,2.499 -6.033,2.499 -2.279,0 -4.421,-0.887 -6.033,-2.5 -1.612,-1.611 -2.499,-3.754 -2.499,-6.033 0,-2.278 0.887,-4.421 2.499,-6.033 2.929,-2.929 2.929,-7.678 0,-10.607 -2.928,-2.929 -7.677,-2.929 -10.606,0 -4.445,4.445 -6.893,10.354 -6.893,16.64 0,6.286 2.448,12.195 6.893,16.64 4.443,4.446 10.352,6.894 16.638,6.894 z"
         id="path831" />
      <path
         style="fill:#ffffff;stroke:#ffffff;stroke-width:0;stroke-miterlimit:4;stroke-dasharray:none;stroke-opacity:1"
         d="m 256,184.371 c -12.976,0 -23.532,10.557 -23.532,23.532 0,12.975 10.557,23.532 23.532,23.532 12.975,0 23.532,-10.557 23.532,-23.532 0,-12.975 -10.556,-23.532 -23.532,-23.532 z m 0,32.065 c -4.705,0 -8.532,-3.828 -8.532,-8.532 0,-4.705 3.828,-8.532 8.532,-8.532 4.704,0 8.532,3.827 8.532,8.532 0,4.704 -3.827,8.532 -8.532,8.532 z"
         id="path833" />
      <path
         style="fill:#ffffff;stroke:#ffffff;stroke-width:0;stroke-miterlimit:4;stroke-dasharray:none;stroke-opacity:1"
         d="m 256,280.564 c -12.976,0 -23.532,10.557 -23.532,23.532 0,12.975 10.557,23.532 23.532,23.532 12.975,0 23.532,-10.557 23.532,-23.532 0,-12.975 -10.556,-23.532 -23.532,-23.532 z m 0,32.065 c -4.705,0 -8.532,-3.827 -8.532,-8.532 0,-4.705 3.828,-8.532 8.532,-8.532 4.704,0 8.532,3.828 8.532,8.532 0,4.705 -3.827,8.532 -8.532,8.532 z"
         id="path835" />
      <path
         style="fill:#ffffff;stroke:#ffffff;stroke-width:0;stroke-miterlimit:4;stroke-dasharray:none;stroke-opacity:1"
         d="m 327.629,256 c 0,-12.976 -10.557,-23.532 -23.532,-23.532 -12.975,0 -23.533,10.556 -23.533,23.532 0,12.976 10.557,23.532 23.532,23.532 12.975,0 23.533,-10.556 23.533,-23.532 z m -23.532,8.532 c -4.705,0 -8.532,-3.828 -8.532,-8.532 0,-4.704 3.828,-8.532 8.532,-8.532 4.704,0 8.532,3.828 8.532,8.532 0,4.704 -3.828,8.532 -8.532,8.532 z"
         id="path837" />
      <path
         style="fill:#ffffff;stroke:#ffffff;stroke-width:0;stroke-miterlimit:4;stroke-dasharray:none;stroke-opacity:1"
         d="m 231.436,256 c 0,-12.976 -10.557,-23.532 -23.532,-23.532 -12.975,0 -23.533,10.556 -23.533,23.532 0,12.976 10.557,23.532 23.532,23.532 12.975,0 23.533,-10.556 23.533,-23.532 z m -23.533,8.532 c -4.705,0 -8.532,-3.828 -8.532,-8.532 0,-4.704 3.828,-8.532 8.532,-8.532 4.704,0 8.532,3.828 8.532,8.532 0,4.704 -3.827,8.532 -8.532,8.532 z"
         id="path839" />
      <path
         style="fill:#ffffff;stroke:#ffffff;stroke-width:0;stroke-miterlimit:4;stroke-dasharray:none;stroke-opacity:1"
         d="m 207.903,215.403 h 0.08 c 4.142,0 7.46,-3.358 7.46,-7.5 0,-4.142 -3.398,-7.5 -7.54,-7.5 -4.142,0 -7.5,3.358 -7.5,7.5 0,4.142 3.358,7.5 7.5,7.5 z"
         id="path841" />
      <path
         style="fill:#ffffff;stroke:#ffffff;stroke-width:0;stroke-miterlimit:4;stroke-dasharray:none;stroke-opacity:1"
         d="m 207.983,311.597 c 4.142,0 7.46,-3.358 7.46,-7.5 0,-4.142 -3.398,-7.5 -7.54,-7.5 -4.142,0 -7.5,3.358 -7.5,7.5 0,4.142 3.358,7.5 7.5,7.5 z"
         id="path843" />
      <path
         style="fill:#ffffff;stroke:#ffffff;stroke-width:0;stroke-miterlimit:4;stroke-dasharray:none;stroke-opacity:1"
         d="m 296.517,207.903 c 0,4.142 3.358,7.5 7.5,7.5 h 0.08 c 4.142,0 7.46,-3.358 7.46,-7.5 0,-4.142 -3.398,-7.5 -7.54,-7.5 -4.142,0 -7.5,3.358 -7.5,7.5 z"
         id="path845" />
      <path
         style="fill:#ffffff;stroke:#ffffff;stroke-width:0;stroke-miterlimit:4;stroke-dasharray:none;stroke-opacity:1"
         d="m 209.991,152.428 c 0.957,0 1.93,-0.184 2.869,-0.574 l 0.074,-0.03 c 3.827,-1.586 5.606,-5.958 4.02,-9.785 -1.586,-3.827 -6.011,-5.627 -9.837,-4.041 -3.827,1.586 -5.643,5.974 -4.057,9.8 1.197,2.888 3.989,4.63 6.931,4.63 z"
         id="path847" />
      <path
         style="fill:#ffffff;stroke:#ffffff;stroke-width:0;stroke-miterlimit:4;stroke-dasharray:none;stroke-opacity:1"
         d="m 364.205,203.079 c -3.823,1.595 -5.629,5.987 -4.034,9.81 1.201,2.879 3.989,4.614 6.925,4.614 0.963,0 1.941,-0.187 2.885,-0.581 l 0.074,-0.031 c 3.823,-1.595 5.592,-5.972 3.997,-9.794 -1.596,-3.823 -6.026,-5.613 -9.847,-4.018 z"
         id="path849" />
      <path
         style="fill:#ffffff;stroke:#ffffff;stroke-width:0;stroke-miterlimit:4;stroke-dasharray:none;stroke-opacity:1"
         d="m 144.917,309.532 c 0.957,0 1.93,-0.185 2.869,-0.574 l 0.074,-0.031 c 3.827,-1.586 5.606,-5.958 4.02,-9.785 -1.586,-3.827 -6.011,-5.627 -9.837,-4.042 -3.827,1.586 -5.643,5.974 -4.057,9.8 1.197,2.889 3.989,4.632 6.931,4.632 z"
         id="path851" />
      <path
         style="fill:#ffffff;stroke:#ffffff;stroke-width:0;stroke-miterlimit:4;stroke-dasharray:none;stroke-opacity:1"
         d="m 299.146,360.176 c -3.827,1.586 -5.643,5.974 -4.057,9.8 1.197,2.888 3.989,4.63 6.931,4.63 0.957,0 1.93,-0.185 2.869,-0.573 l 0.074,-0.031 c 3.827,-1.586 5.606,-5.958 4.02,-9.784 -1.586,-3.827 -6.011,-5.628 -9.837,-4.042 z"
         id="path853" />
      <path
         style="fill:#ffffff;stroke:#ffffff;stroke-width:0;stroke-miterlimit:4;stroke-dasharray:none;stroke-opacity:1"
         d="m 304.017,296.597 c -4.142,0 -7.5,3.358 -7.5,7.5 0,4.142 3.358,7.5 7.5,7.5 h 0.08 c 4.142,0 7.46,-3.358 7.46,-7.5 0,-4.142 -3.398,-7.5 -7.54,-7.5 z"
         id="path855" />
      <path
         style="fill:#ffffff;stroke:#ffffff;stroke-width:0;stroke-miterlimit:4;stroke-dasharray:none;stroke-opacity:1"
         d="m 138.01,207.143 c -1.59,3.825 0.221,8.215 4.045,9.805 0.941,0.392 1.917,0.577 2.877,0.577 2.939,0 5.729,-1.739 6.928,-4.622 l 0.031,-0.074 c 1.59,-3.824 -0.236,-8.177 -4.061,-9.768 -3.823,-1.59 -8.229,0.257 -9.82,4.082 z"
         id="path857" />
      <path
         style="fill:#ffffff;stroke:#ffffff;stroke-width:0;stroke-miterlimit:4;stroke-dasharray:none;stroke-opacity:1"
         d="m 304.896,137.97 c -3.834,-1.568 -8.229,0.305 -9.797,4.138 -1.569,3.833 0.267,8.213 4.101,9.782 0.93,0.38 1.892,0.561 2.838,0.561 2.955,0 5.756,-1.758 6.944,-4.662 l 0.03,-0.074 c 1.568,-3.834 -0.283,-8.176 -4.116,-9.745 z"
         id="path859" />
      <path
         style="fill:#ffffff;stroke:#ffffff;stroke-width:0;stroke-miterlimit:4;stroke-dasharray:none;stroke-opacity:1"
         d="m 207.13,374.051 c 0.941,0.392 1.917,0.577 2.877,0.577 2.939,0 5.729,-1.739 6.928,-4.622 l 0.031,-0.074 c 1.59,-3.824 -0.236,-8.177 -4.061,-9.768 -3.823,-1.59 -8.229,0.257 -9.82,4.082 -1.59,3.825 0.221,8.215 4.045,9.805 z"
         id="path861" />
      <path
         style="fill:#ffffff;stroke:#ffffff;stroke-width:0;stroke-miterlimit:4;stroke-dasharray:none;stroke-opacity:1"
         d="m 374.039,304.931 0.031,-0.074 c 1.59,-3.825 -0.236,-8.178 -4.061,-9.768 -3.824,-1.589 -8.229,0.258 -9.82,4.083 -1.59,3.824 0.221,8.214 4.045,9.805 0.941,0.392 1.917,0.577 2.877,0.577 2.939,0 5.729,-1.74 6.928,-4.623 z"
         id="path863" />
    </g>
  </g>
</svg>
