<svg height="512" viewBox="0 0 64 64" width="512" xmlns="http://www.w3.org/2000/svg"><g id="social_distancing-protection-protect-face_shield-face_mask" data-name="social distancing-protection-protect-face shield-face mask"><path d="m49 19a9 9 0 0 0 -9 9v1h2l9-4 5 4h2v-1a9.014 9.014 0 0 0 -9-9z" fill="#bddbff"/><path d="m42 34a7 7 0 0 0 14 0l-7-2z" fill="#bddbff"/><path d="m15 25 7 4h2v-1a9 9 0 0 0 -18 0v1h2z" fill="#bddbff"/><path d="m8 34a7 7 0 0 0 14 0l-7-2z" fill="#bddbff"/><g fill="#57a4ff"><path d="m55 40h-.73a8.006 8.006 0 0 0 2.66-5h.07a3.009 3.009 0 0 0 3-3 2.973 2.973 0 0 0 -1.22-2.4.981.981 0 0 0 .22-.6v-1a10 10 0 0 0 -20 0v1a.981.981 0 0 0 .22.6 2.973 2.973 0 0 0 -1.22 2.4 3.009 3.009 0 0 0 3 3h.07a8.006 8.006 0 0 0 2.66 5h-.73a7.008 7.008 0 0 0 -7 7v14a1 1 0 0 0 1 1h24a1 1 0 0 0 1-1v-14a7.008 7.008 0 0 0 -7-7zm3-8a1 1 0 0 1 -1 1v-2a1 1 0 0 1 1 1zm-17 1a1 1 0 0 1 0-2zm0-5a8 8 0 0 1 16 0h-.65l-4.73-3.78a.985.985 0 0 0 -1.03-.13l-8.8 3.91zm2 1.65 7.85-3.49 4.15 3.32v3.19l-5.73-1.63a.991.991 0 0 0 -.54 0l-5.73 1.63zm.05 5.09 5.95-1.7 5.95 1.7a6 6 0 0 1 -11.9 0zm16.95 25.26h-22v-13a5 5 0 0 1 5-5h12a5 5 0 0 1 5 5z"/><path d="m21 40h-.73a8.006 8.006 0 0 0 2.66-5h.07a3.009 3.009 0 0 0 3-3 2.973 2.973 0 0 0 -1.22-2.4.981.981 0 0 0 .22-.6v-1a10 10 0 0 0 -20 0v1a.981.981 0 0 0 .22.6 2.973 2.973 0 0 0 -1.22 2.4 3.009 3.009 0 0 0 3 3h.07a8.006 8.006 0 0 0 2.66 5h-.73a7.008 7.008 0 0 0 -7 7v14a1 1 0 0 0 1 1h24a1 1 0 0 0 1-1v-14a7.008 7.008 0 0 0 -7-7zm3-8a1 1 0 0 1 -1 1v-2a1 1 0 0 1 1 1zm-17 1a1 1 0 0 1 0-2zm0-5a8 8 0 0 1 16 0h-.73l-6.77-3.87a1.044 1.044 0 0 0 -1 0l-6.77 3.87zm2 1.58 6-3.43 6 3.43v3.09l-5.73-1.63a.991.991 0 0 0 -.54 0l-5.73 1.63zm.05 5.16 5.95-1.7 5.95 1.7a6 6 0 0 1 -11.9 0zm16.95 25.26h-22v-13a5 5 0 0 1 5-5h12a5 5 0 0 1 5 5z"/><path d="m19.293 11.707 1.414-1.414-2.293-2.293h27.172l-2.293 2.293 1.414 1.414 4-4a1 1 0 0 0 0-1.414l-4-4-1.414 1.414 2.293 2.293h-27.172l2.293-2.293-1.414-1.414-4 4a1 1 0 0 0 0 1.414z"/><path d="m26 16v2h5v2h-6a1 1 0 0 1 -1-1v-4a1 1 0 0 1 1-1h4v-2h-5v-2h6a1 1 0 0 1 1 1v4a1 1 0 0 1 -1 1z"/><path d="m41 11v9h-2v-6l-1.2 1.6a1.041 1.041 0 0 1 -1.6 0l-1.2-1.6v6h-2v-9a1 1 0 0 1 1.8-.6l2.2 2.93 2.2-2.93a1 1 0 0 1 1.8.6z"/></g></g></svg>