<?xml version="1.0" encoding="UTF-8" standalone="no"?>
<!-- Generator: Adobe Illustrator 16.0.0, SVG Export Plug-In . SVG Version: 6.00 Build 0)  -->

<svg
   xmlns:dc="http://purl.org/dc/elements/1.1/"
   xmlns:cc="http://creativecommons.org/ns#"
   xmlns:rdf="http://www.w3.org/1999/02/22-rdf-syntax-ns#"
   xmlns:svg="http://www.w3.org/2000/svg"
   xmlns="http://www.w3.org/2000/svg"
   xmlns:sodipodi="http://sodipodi.sourceforge.net/DTD/sodipodi-0.dtd"
   xmlns:inkscape="http://www.inkscape.org/namespaces/inkscape"
   version="1.1"
   id="Capa_1"
   x="0px"
   y="0px"
   width="484.5px"
   height="484.5px"
   viewBox="0 0 484.5 484.5"
   style="enable-background:new 0 0 484.5 484.5;"
   xml:space="preserve"
   sodipodi:docname="train-public-transport.svg"
   inkscape:version="0.92.4 (5da689c313, 2019-01-14)"><metadata
   id="metadata1526"><rdf:RDF><cc:Work
       rdf:about=""><dc:format>image/svg+xml</dc:format><dc:type
         rdf:resource="http://purl.org/dc/dcmitype/StillImage" /><dc:title></dc:title></cc:Work></rdf:RDF></metadata><defs
   id="defs1524" /><sodipodi:namedview
   pagecolor="#ffffff"
   bordercolor="#666666"
   borderopacity="1"
   objecttolerance="10"
   gridtolerance="10"
   guidetolerance="10"
   inkscape:pageopacity="0"
   inkscape:pageshadow="2"
   inkscape:window-width="1280"
   inkscape:window-height="657"
   id="namedview1522"
   showgrid="false"
   inkscape:zoom="0.97420021"
   inkscape:cx="136.54805"
   inkscape:cy="210.80403"
   inkscape:window-x="-8"
   inkscape:window-y="1072"
   inkscape:window-maximized="1"
   inkscape:current-layer="Capa_1" />
<g
   id="g1489">
	<g
   id="directions-transit">
		<path
   d="M242.25,0c-112.2,0-204,12.75-204,102v242.25c0,48.45,40.8,89.25,89.25,89.25l-38.25,38.25v12.75h306v-12.75L357,433.5    c48.45,0,89.25-40.8,89.25-89.25V102C446.25,12.75,354.45,0,242.25,0z M127.5,382.5c-20.4,0-38.25-17.85-38.25-38.25    S107.1,306,127.5,306s38.25,17.85,38.25,38.25S147.9,382.5,127.5,382.5z M216.75,229.5H89.25V102h127.5V229.5z M357,382.5    c-20.4,0-38.25-17.85-38.25-38.25S336.6,306,357,306s38.25,17.85,38.25,38.25S377.4,382.5,357,382.5z M395.25,229.5h-127.5V102    h127.5V229.5z"
   id="path1486" />
	</g>
</g>
<g
   id="g1491">
</g>
<g
   id="g1493">
</g>
<g
   id="g1495">
</g>
<g
   id="g1497">
</g>
<g
   id="g1499">
</g>
<g
   id="g1501">
</g>
<g
   id="g1503">
</g>
<g
   id="g1505">
</g>
<g
   id="g1507">
</g>
<g
   id="g1509">
</g>
<g
   id="g1511">
</g>
<g
   id="g1513">
</g>
<g
   id="g1515">
</g>
<g
   id="g1517">
</g>
<g
   id="g1519">
</g>
<path
   style="opacity:1;fill:#57a4ff;fill-opacity:1;stroke:none;stroke-width:77.59242249;stroke-linecap:square;stroke-linejoin:round;stroke-miterlimit:4;stroke-dasharray:none;stroke-opacity:1"
   d="M 228.86579,0.07589651 C 176.75094,0.40772341 120.39609,0.65451901 74.624677,29.017906 50.404902,44.554834 35.475036,73.101447 37.959147,101.98563 c -0.791266,81.54678 -2.828807,163.18121 0.04495,244.69671 -0.0064,44.79527 39.900298,85.11975 84.167593,87.44753 2.60916,3.60337 -14.1249,15.16093 -19.23452,22.04132 -6.829036,7.84147 -20.48542,18.14904 -13.244038,29.28283 101.279658,0 202.559328,0 303.838978,0 7.65514,-12.86347 -8.90275,-23.72093 -16.46665,-32.58084 -5.09703,-5.77702 -13.91916,-12.70389 -16.58931,-18.19398 40.04034,-2.16304 74.64517,-33.74421 85.35447,-71.32454 -0.0962,-95.36475 0.19249,-190.76641 -0.14434,-286.108088 C 438.13586,49.48944 415.88624,28.200284 389.3137,18.380671 338.50913,-2.7823031 282.66578,0.39485653 228.86579,0.07589651 Z M 152.30859,103.60232 c 20.8892,0 41.7784,0 62.6676,0 0,41.7784 0,83.55679 0,125.33519 -41.7784,0 -83.55679,0 -125.335189,0 0,-41.7784 0,-83.55679 0,-125.33519 20.889199,0 41.778399,0 62.667589,0 z m 178.60806,0 c 20.88919,0 41.77839,0 62.66759,0 0,41.7784 0,83.55679 0,125.33519 -41.7784,0 -83.55679,0 -125.33519,0 0,-41.7784 0,-83.55679 0,-125.33519 20.8892,0 41.7784,0 62.6676,0 z m 27.12561,203.33187 c 21.53874,1.89994 41.38757,23.57515 34.32703,45.77874 -4.79002,26.54473 -41.65294,37.35669 -60.34195,18.09977 -18.42872,-15.39353 -14.21582,-47.2283 6.84055,-58.14064 5.76702,-3.38546 12.36277,-6.10876 19.17437,-5.73787 z m -229.63548,0.24058 c 20.48794,1.3338 39.29615,20.91858 34.92448,41.98957 -1.41591,24.51069 -31.35328,39.74335 -52.35465,27.48648 -23.03189,-9.52656 -27.00167,-42.64263 -8.94564,-58.71 6.95742,-6.88399 16.63899,-10.60908 26.37581,-10.76605 z"
   id="path2087"
   inkscape:connector-curvature="0" /><path
   style="opacity:1;fill:#57a4ff;fill-opacity:1;stroke:none;stroke-width:54.86612701;stroke-linecap:square;stroke-linejoin:round;stroke-miterlimit:4;stroke-dasharray:none;stroke-opacity:1"
   d="M 240.50869,-1.5308463 C 187.82952,-0.09708907 131.78928,-2.8376483 83.652178,22.322412 55.37589,36.455351 34.639173,66.710693 36.567525,98.944325 35.957292,179.9005 35.565387,260.88208 36.708354,341.83358 c -0.328045,17.54594 3.250093,35.26174 13.509359,49.80683 15.591524,23.82386 41.429599,41.15407 69.972787,44.19707 -10.59323,13.56322 -26.141691,23.74104 -33.325944,39.7025 -1.608382,5.75407 0.74089,14.50671 8.582393,11.47724 99.419291,-0.24346 198.838591,-0.48528 298.257901,-0.72583 5.99384,-6.21054 1.01843,-16.61168 -4.47976,-22.07269 -8.37344,-9.68421 -17.54217,-18.63915 -26.32279,-27.94742 39.2838,-4.91404 74.24724,-35.06577 84.36578,-73.24109 C 446.87847,266.20263 447.02773,169.3126 446.30223,72.523979 436.18693,47.119233 415.72864,26.047643 389.76663,16.89284 342.63004,-1.9360616 290.42313,-1.2998413 240.50869,-1.5308463 Z M 152.72257,105.229 c 20.38287,0 40.76574,0 61.14861,0 0,40.76573 0,81.53148 0,122.29722 -40.76574,0 -81.53148,0 -122.297214,0 0,-40.76574 0,-81.53149 0,-122.29722 20.382874,0 40.765734,0 61.148604,0 z m 178.55495,0 c 20.38288,0 40.76574,0 61.14861,0 0,40.76573 0,81.53148 0,122.29722 -40.76573,0 -81.53148,0 -122.29722,0 0,-40.76574 0,-81.53149 0,-122.29722 20.38288,0 40.76574,0 61.14861,0 z M 128.77575,308.73163 c 21.16985,1.81795 39.02077,24.07008 32.0444,45.18594 -5.4425,24.41179 -39.65945,33.43787 -57.1622,16.0619 -17.564902,-14.62 -13.661764,-45.38804 6.47013,-55.86364 5.63399,-3.24646 12.13953,-5.23927 18.64767,-5.3842 z m 228.35675,0.13041 c 21.80174,0.2348 41.44147,24.71761 33.14731,45.96567 -6.7548,24.91404 -43.92443,32.49629 -59.64022,11.94505 -16.43186,-16.41578 -7.36105,-46.68096 13.37687,-54.89113 4.09319,-1.91452 8.58801,-3.01999 13.11604,-3.01959 z"
   id="path2093"
   inkscape:connector-curvature="0" /><path
   style="opacity:1;fill:#57a4ff;fill-opacity:1;stroke:none;stroke-width:54.86612701;stroke-linecap:square;stroke-linejoin:round;stroke-miterlimit:4;stroke-dasharray:none;stroke-opacity:1"
   d="M 231.55201,-2.282197 C 178.70811,-2.0151958 122.10194,-2.3984697 75.194521,25.588661 53.909331,40.528147 35.167468,64.175769 36.453178,91.497711 33.97527,179.20552 33.103579,267.04315 36.495707,354.73698 c 1.225689,31.14487 23.981891,57.80227 50.482262,72.09281 9.254684,5.13852 19.525841,7.83914 29.713791,10.39982 -10.11245,13.5715 -26.048607,23.63763 -31.644622,40.1278 -1.13477,6.88591 4.397414,13.82236 11.888353,11.11148 97.542429,-0.44736 195.115889,1.01367 292.638329,-1.08875 9.15771,1.66407 9.76381,-10.09595 6.2178,-15.71031 -8.01258,-12.87011 -19.55994,-23.15148 -29.50116,-34.5026 38.6076,-6.43387 72.33495,-36.66218 82.56471,-74.31283 C 448.4,265.60534 448.56495,168.2785 447.7227,71.077983 435.22144,43.510998 411.42824,20.666911 381.86469,12.586041 344.0498,-0.188226 303.86892,-2.7919593 264.23441,-2.2516398 c -10.89395,-0.085131 -21.78828,-0.081673 -32.6824,-0.030557 z M 152.72257,106.68067 c 19.89898,0 39.79795,0 59.69695,0 0,39.79796 0,79.59591 0,119.39388 -39.79797,0 -79.59593,0 -119.393888,0 0,-39.79797 0,-79.59592 0,-119.39388 19.898978,0 39.797958,0 59.696938,0 z m 178.55495,0 c 19.89898,0 39.79795,0 59.69694,0 0,39.79796 0,79.59591 0,119.39388 -39.79796,0 -79.59592,0 -119.39388,0 0,-39.79797 0,-79.59592 0,-119.39388 19.89899,0 39.79796,0 59.69694,0 z m 26.65735,203.82018 c 21.50467,1.09671 41.26163,27.33493 29.22897,47.48536 -5.82615,12.01408 -18.50043,19.5268 -31.85728,18.81212 -21.29229,0.73294 -37.74569,-24.15297 -29.1127,-43.63789 4.98625,-12.67598 17.66138,-23.22335 31.74101,-22.65959 z m -230.31308,0.51885 c 21.16739,-0.51508 37.02894,22.19146 31.67297,42.11533 -4.9241,23.85718 -40.84137,32.6906 -56.29459,13.73979 -16.446212,-16.06514 -8.089593,-48.49387 14.46279,-54.19364 3.26625,-1.10037 6.71158,-1.66775 10.15883,-1.66148 z"
   id="path2095"
   inkscape:connector-curvature="0" /></svg>